<?xml version="1.0" encoding="UTF-8" standalone="no"?>
<!-- Generator: Adobe Illustrator 25.4.1, SVG Export Plug-In . SVG Version: 6.00 Build 0)  -->

<svg
   version="1.1"
   id="Layer_1"
   x="0px"
   y="0px"
   viewBox="0 0 485.53 488.02"
   style="enable-background:new 0 0 485.53 488.02;"
   xml:space="preserve"
   sodipodi:docname="smashball.svg"
   inkscape:version="1.2.1 (9c6d41e410, 2022-07-14)"
   xmlns:inkscape="http://www.inkscape.org/namespaces/inkscape"
   xmlns:sodipodi="http://sodipodi.sourceforge.net/DTD/sodipodi-0.dtd"
   xmlns="http://www.w3.org/2000/svg"
   xmlns:svg="http://www.w3.org/2000/svg"><defs
   id="defs17" /><sodipodi:namedview
   id="namedview15"
   pagecolor="#ffffff"
   bordercolor="#666666"
   borderopacity="1.0"
   inkscape:showpageshadow="2"
   inkscape:pageopacity="0.0"
   inkscape:pagecheckerboard="0"
   inkscape:deskcolor="#d1d1d1"
   showgrid="false"
   inkscape:zoom="2.104422"
   inkscape:cx="258.0281"
   inkscape:cy="243.5348"
   inkscape:window-width="3838"
   inkscape:window-height="2131"
   inkscape:window-x="3840"
   inkscape:window-y="27"
   inkscape:window-maximized="1"
   inkscape:current-layer="Layer_1" />
<style
   type="text/css"
   id="style2">
	.st0{stroke:#FFFFFF;stroke-miterlimit:10;}
</style>
<g
   id="g12"
   style="fill:#000000;fill-opacity:1">
	<path
   class="st0"
   d="M102.03,73.01c-47.27,39.83-77.31,99.46-77.31,166.11c0,10.16,0.71,20.15,2.06,29.94h75.24V73.01z"
   id="path4"
   style="fill:#000000;fill-opacity:1" />
	<path
   class="st0"
   d="M37.1,311.49c13.01,36.81,35.67,69.06,64.93,93.73v-93.73H37.1z"
   id="path6"
   style="fill:#000000;fill-opacity:1" />
	<path
   class="st0"
   d="M456.94,269.05c1.35-9.79,2.06-19.78,2.06-29.94c0-119.92-97.22-217.14-217.14-217.14   c-12.53,0-24.81,1.08-36.76,3.11v243.96H456.94z"
   id="path8"
   style="fill:#000000;fill-opacity:1" />
	<path
   class="st0"
   d="M205.11,453.14c11.95,2.04,24.23,3.11,36.76,3.11c94.54,0,174.95-60.43,204.76-144.76H205.11V453.14z"
   id="path10"
   style="fill:#000000;fill-opacity:1" />
</g>
</svg>
