<?xml version="1.0" encoding="UTF-8" standalone="no"?>
<!-- Generator: Adobe Illustrator 25.4.1, SVG Export Plug-In . SVG Version: 6.00 Build 0)  -->

<svg
   version="1.1"
   id="Layer_1"
   x="0px"
   y="0px"
   viewBox="0 0 24 24"
   style="enable-background:new 0 0 24 24;"
   xml:space="preserve"
   sodipodi:docname="replay2.svg"
   inkscape:version="1.2.1 (9c6d41e410, 2022-07-14)"
   xmlns:inkscape="http://www.inkscape.org/namespaces/inkscape"
   xmlns:sodipodi="http://sodipodi.sourceforge.net/DTD/sodipodi-0.dtd"
   xmlns="http://www.w3.org/2000/svg"
   xmlns:svg="http://www.w3.org/2000/svg"><defs
   id="defs11" /><sodipodi:namedview
   id="namedview9"
   pagecolor="#ffffff"
   bordercolor="#666666"
   borderopacity="1.0"
   inkscape:showpageshadow="2"
   inkscape:pageopacity="0.0"
   inkscape:pagecheckerboard="0"
   inkscape:deskcolor="#d1d1d1"
   showgrid="false"
   inkscape:zoom="42.791667"
   inkscape:cx="12.011685"
   inkscape:cy="12.023369"
   inkscape:window-width="3838"
   inkscape:window-height="2131"
   inkscape:window-x="3840"
   inkscape:window-y="27"
   inkscape:window-maximized="1"
   inkscape:current-layer="Layer_1" />
<g
   id="g6"
   style="fill:#ffffff;fill-opacity:1">
	<path
   d="M23.97,10.14C23.98,10.09,24,10.05,24,10V5.11c0-0.55-0.45-1-1-1s-1,0.45-1,1v2.58l-2.92-2.75   c-1.05-1.05-2.34-1.87-3.74-2.36c-5.2-1.83-10.92,0.9-12.76,6.1c-0.89,2.52-0.75,5.23,0.41,7.64c1.15,2.41,3.17,4.23,5.69,5.12   C9.77,21.82,10.89,22,12,22c4.12,0,7.99-2.57,9.44-6.67c0.18-0.52-0.09-1.09-0.61-1.28c-0.52-0.19-1.09,0.09-1.28,0.61   c-1.47,4.16-6.05,6.35-10.21,4.88c-2.01-0.71-3.63-2.17-4.55-4.09c-0.92-1.93-1.04-4.1-0.32-6.11C5.17,7.32,6.63,5.7,8.55,4.78   c1.93-0.92,4.1-1.04,6.11-0.32c1.12,0.4,2.15,1.05,3.02,1.91L20.48,9h-2.37c-0.55,0-1,0.45-1,1s0.45,1,1,1H23c0.01,0,0.01,0,0.01,0   c0.09,0,0.17-0.03,0.25-0.05c0.04-0.01,0.09-0.01,0.13-0.03c0.04-0.02,0.07-0.05,0.11-0.07c0.08-0.05,0.15-0.09,0.21-0.15   c0,0,0.01,0,0.01-0.01c0.03-0.03,0.04-0.08,0.07-0.11c0.05-0.07,0.1-0.13,0.13-0.21C23.95,10.29,23.96,10.22,23.97,10.14z"
   id="path2"
   style="fill:#ffffff;fill-opacity:1" />
	<path
   d="M10.47,7.3c-0.31-0.2-0.7-0.21-1.02-0.04C9.13,7.44,8.93,7.78,8.93,8.14v7.71c0,0.37,0.2,0.7,0.52,0.88   c0.15,0.08,0.31,0.12,0.48,0.12c0.19,0,0.38-0.05,0.54-0.16l6-3.86c0.29-0.18,0.46-0.5,0.46-0.84s-0.17-0.66-0.46-0.84L10.47,7.3z    M10.93,14.03V9.97L14.08,12L10.93,14.03z"
   id="path4"
   style="fill:#ffffff;fill-opacity:1" />
</g>
</svg>
